<svg width="37" height="37" viewBox="0 0 37 37" fill="none" xmlns="http://www.w3.org/2000/svg">
<path d="M18.67 36.34C28.4289 36.34 36.34 28.4289 36.34 18.67C36.34 8.91111 28.4289 1 18.67 1C8.91114 1 1 8.91111 1 18.67C1 28.4289 8.91114 36.34 18.67 36.34Z" stroke="url(#paint0_linear_111_4694)" stroke-miterlimit="10"/>
<path d="M22.8601 13.21H20.2001C19.8901 13.21 19.5401 13.62 19.5401 14.17V16.09H22.8601L22.3601 18.8201H19.5401V27.03H16.4101V18.8201H13.5701V16.09H16.4101V14.48C16.4101 12.17 18.0101 10.3 20.2101 10.3H22.8701V13.21H22.8601Z" fill="url(#paint1_linear_111_4694)"/>
<defs>
<linearGradient id="paint0_linear_111_4694" x1="-4.93178" y1="-19.15" x2="53.0336" y2="-17.3101" gradientUnits="userSpaceOnUse">
<stop stop-color="#FF6C4A"/>
<stop offset="1" stop-color="#FF2F61"/>
</linearGradient>
<linearGradient id="paint1_linear_111_4694" x1="12.0091" y1="0.760995" x2="27.2738" y2="1.03034" gradientUnits="userSpaceOnUse">
<stop stop-color="#FF6C4A"/>
<stop offset="1" stop-color="#FF2F61"/>
</linearGradient>
</defs>
</svg>
