<svg width="37" height="37" viewBox="0 0 37 37" fill="none" xmlns="http://www.w3.org/2000/svg">
<path d="M18.17 36.34C27.9289 36.34 35.84 28.4289 35.84 18.67C35.84 8.91111 27.9289 1 18.17 1C8.41114 1 0.5 8.91111 0.5 18.67C0.5 28.4289 8.41114 36.34 18.17 36.34Z" stroke="url(#paint0_linear_111_4703)" stroke-miterlimit="10"/>
<path d="M25.55 15.62C25.55 15 25.42 14.38 25.2 13.79C25.01 13.3 24.72 12.85 24.34 12.48C23.97 12.11 23.52 11.81 23.03 11.62C22.45 11.4 21.84 11.29 21.23 11.27C20.44 11.23 20.18 11.22 18.17 11.22C16.16 11.22 15.9 11.22 15.11 11.27C14.49 11.28 13.88 11.4 13.31 11.62C12.82 11.81 12.37 12.1 11.99 12.48C11.61 12.86 11.32 13.3 11.13 13.8C10.91 14.38 10.8 14.99 10.78 15.6C10.74 16.39 10.73 16.65 10.73 18.66C10.73 20.67 10.73 20.93 10.78 21.72C10.79 22.34 10.91 22.95 11.13 23.52C11.32 24.01 11.61 24.46 11.99 24.83C12.36 25.2 12.81 25.5 13.31 25.69C13.89 25.92 14.49 26.04 15.11 26.06C15.9 26.1 16.16 26.11 18.17 26.11C20.18 26.11 20.44 26.11 21.23 26.06C21.85 26.05 22.46 25.93 23.03 25.71C23.52 25.52 23.97 25.23 24.34 24.85C24.71 24.48 25.01 24.03 25.2 23.54C25.42 22.96 25.53 22.35 25.55 21.74C25.59 20.95 25.6 20.69 25.6 18.68C25.6 16.67 25.6 16.41 25.55 15.62ZM18.17 22.46C16.06 22.46 14.36 20.75 14.36 18.65C14.36 16.55 16.07 14.84 18.17 14.84C19.18 14.84 20.15 15.24 20.87 15.96C21.59 16.68 21.99 17.65 21.99 18.66C21.99 19.67 21.59 20.64 20.87 21.36C20.15 22.08 19.18 22.48 18.17 22.48V22.46ZM22.13 15.58C22.01 15.58 21.9 15.56 21.79 15.51C21.68 15.47 21.58 15.4 21.5 15.32C21.42 15.24 21.35 15.14 21.31 15.03C21.27 14.92 21.24 14.81 21.24 14.69C21.24 14.57 21.26 14.46 21.31 14.35C21.35 14.24 21.42 14.14 21.5 14.06C21.58 13.98 21.68 13.91 21.79 13.87C21.9 13.83 22.01 13.8 22.13 13.8C22.25 13.8 22.36 13.82 22.47 13.87C22.58 13.91 22.68 13.98 22.76 14.06C22.84 14.14 22.91 14.24 22.95 14.35C22.99 14.46 23.02 14.57 23.02 14.69C23.02 15.18 22.62 15.58 22.13 15.58Z" fill="url(#paint1_linear_111_4703)"/>
<path d="M18.1599 21.1299C19.5299 21.1299 20.6399 20.0199 20.6399 18.6499C20.6399 17.2799 19.5299 16.1699 18.1599 16.1699C16.7899 16.1699 15.6799 17.2799 15.6799 18.6499C15.6799 20.0199 16.7899 21.1299 18.1599 21.1299Z" fill="url(#paint2_linear_111_4703)"/>
<defs>
<linearGradient id="paint0_linear_111_4703" x1="-5.43178" y1="-19.15" x2="52.5336" y2="-17.3101" gradientUnits="userSpaceOnUse">
<stop stop-color="#FF6C4A"/>
<stop offset="1" stop-color="#FF2F61"/>
</linearGradient>
<linearGradient id="paint1_linear_111_4703" x1="8.23407" y1="2.73002" x2="32.6242" y2="3.50318" gradientUnits="userSpaceOnUse">
<stop stop-color="#FF6C4A"/>
<stop offset="1" stop-color="#FF2F61"/>
</linearGradient>
<linearGradient id="paint2_linear_111_4703" x1="14.8474" y1="13.3418" x2="22.9829" y2="13.6001" gradientUnits="userSpaceOnUse">
<stop stop-color="#FF6C4A"/>
<stop offset="1" stop-color="#FF2F61"/>
</linearGradient>
</defs>
</svg>
