<svg width="77" height="76" viewBox="0 0 77 76" fill="none" xmlns="http://www.w3.org/2000/svg">
<path d="M57.19 23.56C58.4498 23.56 59.6579 23.0596 60.5487 22.1688C61.4395 21.278 61.94 20.0698 61.94 18.81C61.94 17.5502 61.4395 16.342 60.5487 15.4512C59.6579 14.5604 58.4498 14.06 57.19 14.06C55.9302 14.06 54.722 14.5604 53.8312 15.4512C52.9404 16.342 52.44 17.5502 52.44 18.81C52.44 20.0698 52.9404 21.278 53.8312 22.1688C54.722 23.0596 55.9302 23.56 57.19 23.56ZM26.6 24.89C26.604 18.29 29.2276 11.9615 33.8946 7.29456C38.5615 2.62765 44.89 0.00402685 51.49 0C65.1548 0 76.38 10.7122 76.38 24.51C76.3876 29.7722 74.717 34.8998 71.611 39.1476C70.1281 37.9378 68.499 36.919 66.7622 36.1152C69.3054 32.7813 70.6809 28.7032 70.6762 24.51C70.6762 13.9878 62.1376 5.7 51.4862 5.7C46.3979 5.70403 41.5192 7.72712 37.9213 11.3251C34.3233 14.923 32.3002 19.8017 32.2962 24.89C32.2962 25.8856 32.4254 26.9382 32.6306 28.101C32.823 29.1671 32.7556 30.2639 32.4341 31.2985C32.1126 32.333 31.5465 33.2749 30.7838 34.0442L7.087 57.7372C6.64595 58.1784 6.29612 58.7021 6.05748 59.2785C5.81885 59.8548 5.69608 60.4726 5.6962 61.0964V69.35C5.6962 69.8744 6.1218 70.3 6.6462 70.3H16.1462C16.3981 70.3 16.6398 70.1999 16.8179 70.0218C16.9961 69.8436 17.0962 69.602 17.0962 69.35V63.65C17.0962 61.028 19.2242 58.9 21.8462 58.9H28.4962V52.25C28.4962 49.78 30.3848 47.747 32.7978 47.519L36.8904 51.6154C36.3296 52.063 35.8446 52.5981 35.454 53.2H34.2V59.85C34.2 62.472 32.072 64.6 29.45 64.6H22.8V69.35C22.8 71.1137 22.0994 72.8051 20.8523 74.0523C19.6051 75.2994 17.9137 76 16.15 76H6.65C4.88631 76 3.19486 75.2994 1.94774 74.0523C0.700622 72.8051 0 71.1137 0 69.35V61.0964C0 58.3224 1.0982 55.6662 3.059 53.7092L26.752 30.0124C26.8676 29.8906 26.9521 29.7427 26.9984 29.5813C27.0447 29.4199 27.0514 29.2498 27.018 29.0852C26.7572 27.7016 26.6174 26.2979 26.6 24.89ZM44.954 35.074C45.234 34.8131 45.4586 34.4984 45.6144 34.1488C45.7701 33.7992 45.8539 33.4219 45.8606 33.0392C45.8674 32.6565 45.797 32.2764 45.6537 31.9215C45.5103 31.5667 45.297 31.2443 45.0263 30.9737C44.7557 30.703 44.4333 30.4897 44.0785 30.3463C43.7236 30.203 43.3435 30.1326 42.9608 30.1393C42.5781 30.1461 42.2007 30.2299 41.8511 30.3856C41.5015 30.5414 41.1869 30.766 40.926 31.046L33.326 38.646C32.7923 39.1804 32.4925 39.9047 32.4925 40.66C32.4925 41.4153 32.7923 42.1396 33.326 42.674L40.926 50.274C41.1869 50.554 41.5015 50.7786 41.8511 50.9344C42.2007 51.0901 42.5781 51.1739 42.9608 51.1806C43.3435 51.1874 43.7236 51.117 44.0785 50.9737C44.4333 50.8303 44.7557 50.617 45.0263 50.3463C45.297 50.0757 45.5103 49.7533 45.6537 49.3985C45.797 49.0436 45.8674 48.6635 45.8606 48.2808C45.8539 47.8981 45.7701 47.5208 45.6144 47.1712C45.4586 46.8216 45.234 46.5069 44.954 46.246L42.218 43.51H57.19C59.8205 43.51 62.3919 44.29 64.5791 45.7515C66.7662 47.2129 68.4709 49.2901 69.4776 51.7203C70.4842 54.1506 70.7476 56.8247 70.2344 59.4047C69.7212 61.9846 68.4545 64.3545 66.5945 66.2145C64.7345 68.0746 62.3646 69.3413 59.7847 69.8544C57.2047 70.3676 54.5306 70.1042 52.1003 69.0976C49.67 68.091 47.5929 66.3863 46.1314 64.1991C44.67 62.0119 43.89 59.4405 43.89 56.81C43.89 56.0541 43.5897 55.3292 43.0552 54.7947C42.5208 54.2603 41.7959 53.96 41.04 53.96C40.2841 53.96 39.5592 54.2603 39.0247 54.7947C38.4903 55.3292 38.19 56.0541 38.19 56.81C38.19 60.5678 39.3043 64.2413 41.3921 67.3658C43.4798 70.4904 46.4472 72.9257 49.919 74.3637C53.3908 75.8018 57.2111 76.178 60.8967 75.4449C64.5823 74.7118 67.9678 72.9022 70.625 70.245C73.2822 67.5878 75.0918 64.2024 75.8249 60.5167C76.558 56.8311 76.1818 53.0108 74.7437 49.539C73.3056 46.0672 70.8703 43.0998 67.7458 41.0121C64.6213 38.9243 60.9478 37.81 57.19 37.81H42.218L44.954 35.074Z" fill="url(#paint0_linear_111_4870)"/>
<defs>
<linearGradient id="paint0_linear_111_4870" x1="-12.8203" y1="-43.3335" x2="112.458" y2="-39.3369" gradientUnits="userSpaceOnUse">
<stop stop-color="#FF6C4A"/>
<stop offset="1" stop-color="#FF2F61"/>
</linearGradient>
</defs>
</svg>
