<svg width="37" height="37" viewBox="0 0 37 37" fill="none" xmlns="http://www.w3.org/2000/svg">
<path d="M18.42 36.34C28.1789 36.34 36.09 28.4289 36.09 18.67C36.09 8.91111 28.1789 1 18.42 1C8.66114 1 0.75 8.91111 0.75 18.67C0.75 28.4289 8.66114 36.34 18.42 36.34Z" stroke="url(#paint0_linear_111_4697)" stroke-miterlimit="10"/>
<path d="M14.38 15.3398H11.47V24.8298H14.38V15.3398Z" fill="url(#paint1_linear_111_4697)"/>
<path d="M12.97 14.01C13.9365 14.01 14.72 13.2265 14.72 12.26C14.72 11.2935 13.9365 10.51 12.97 10.51C12.0035 10.51 11.22 11.2935 11.22 12.26C11.22 13.2265 12.0035 14.01 12.97 14.01Z" fill="url(#paint2_linear_111_4697)"/>
<path d="M25.54 24.74H22.63V20.08C22.63 19 22.63 17.5 21.05 17.5C19.47 17.5 19.3 18.75 19.3 19.91V24.65H16.39V15.33H19.14V16.58H19.22C19.64 15.83 20.63 15 22.05 15C25.05 15 25.63 17 25.63 19.58V24.74H25.55H25.54Z" fill="url(#paint3_linear_111_4697)"/>
<defs>
<linearGradient id="paint0_linear_111_4697" x1="-5.18178" y1="-19.15" x2="52.7836" y2="-17.3101" gradientUnits="userSpaceOnUse">
<stop stop-color="#FF6C4A"/>
<stop offset="1" stop-color="#FF2F61"/>
</linearGradient>
<linearGradient id="paint1_linear_111_4697" x1="10.9815" y1="9.92887" x2="15.7589" y2="9.97537" gradientUnits="userSpaceOnUse">
<stop stop-color="#FF6C4A"/>
<stop offset="1" stop-color="#FF2F61"/>
</linearGradient>
<linearGradient id="paint2_linear_111_4697" x1="10.6325" y1="8.51439" x2="16.3733" y2="8.69662" gradientUnits="userSpaceOnUse">
<stop stop-color="#FF6C4A"/>
<stop offset="1" stop-color="#FF2F61"/>
</linearGradient>
<linearGradient id="paint3_linear_111_4697" x1="14.8391" y1="9.44648" x2="29.9962" y2="9.90291" gradientUnits="userSpaceOnUse">
<stop stop-color="#FF6C4A"/>
<stop offset="1" stop-color="#FF2F61"/>
</linearGradient>
</defs>
</svg>
